<svg xmlns="http://www.w3.org/2000/svg" width="960" height="410" viewBox="0 0 960 410">
<rect width="100%" height="100%" rx="18" fill="#0f1115"/>
<rect x="18" y="18" width="924" height="374" rx="14" fill="#11161d" stroke="#30363d"/>
<text x="36" y="48" fill="#e6e1d9" font-family="ui-monospace, SFMono-Regular, Menlo, monospace" font-size="20" font-weight="700">replicated log ledger</text>
<text x="38" y="110" fill="#e6e1d9" font-family="ui-monospace, SFMono-Regular, Menlo, monospace" font-size="14">node-0</text>
<rect x="120" y="92" width="92" height="24" rx="12" fill="#8b949e"/>
<text x="136" y="108" fill="#0f1115" font-family="ui-monospace, SFMono-Regular, Menlo, monospace" font-size="12" font-weight="700">FOLLOWER</text>
<rect x="248" y="88" width="132" height="32" rx="8" fill="#21262d" stroke="#30363d"/>
<text x="260" y="109" fill="#e6e1d9" font-family="ui-monospace, SFMono-Regular, Menlo, monospace" font-size="12">noop</text>
<rect x="398" y="88" width="132" height="32" rx="8" fill="#21262d" stroke="#30363d"/>
<text x="410" y="109" fill="#e6e1d9" font-family="ui-monospace, SFMono-Regular, Menlo, monospace" font-size="12">set foo=bar</text>
<rect x="548" y="88" width="132" height="32" rx="8" fill="#21262d" stroke="#30363d"/>
<text x="560" y="109" fill="#e6e1d9" font-family="ui-monospace, SFMono-Regular, Menlo, monospace" font-size="12">set baz=qux</text>
<text x="820" y="110" fill="#3fb950" font-family="ui-monospace, SFMono-Regular, Menlo, monospace" font-size="14">commit ✓</text>
<text x="38" y="168" fill="#e6e1d9" font-family="ui-monospace, SFMono-Regular, Menlo, monospace" font-size="14">node-1</text>
<rect x="120" y="150" width="92" height="24" rx="12" fill="#8b949e"/>
<text x="136" y="166" fill="#0f1115" font-family="ui-monospace, SFMono-Regular, Menlo, monospace" font-size="12" font-weight="700">FOLLOWER</text>
<rect x="248" y="146" width="132" height="32" rx="8" fill="#21262d" stroke="#30363d"/>
<text x="260" y="167" fill="#e6e1d9" font-family="ui-monospace, SFMono-Regular, Menlo, monospace" font-size="12">noop</text>
<rect x="398" y="146" width="132" height="32" rx="8" fill="#21262d" stroke="#30363d"/>
<text x="410" y="167" fill="#e6e1d9" font-family="ui-monospace, SFMono-Regular, Menlo, monospace" font-size="12">set foo=bar</text>
<rect x="548" y="146" width="132" height="32" rx="8" fill="#21262d" stroke="#30363d"/>
<text x="560" y="167" fill="#e6e1d9" font-family="ui-monospace, SFMono-Regular, Menlo, monospace" font-size="12">set baz=qux</text>
<text x="820" y="168" fill="#3fb950" font-family="ui-monospace, SFMono-Regular, Menlo, monospace" font-size="14">commit ✓</text>
<text x="38" y="226" fill="#e6e1d9" font-family="ui-monospace, SFMono-Regular, Menlo, monospace" font-size="14">node-2</text>
<rect x="120" y="208" width="92" height="24" rx="12" fill="#8b949e"/>
<text x="136" y="224" fill="#0f1115" font-family="ui-monospace, SFMono-Regular, Menlo, monospace" font-size="12" font-weight="700">FOLLOWER</text>
<rect x="248" y="204" width="132" height="32" rx="8" fill="#21262d" stroke="#30363d"/>
<text x="260" y="225" fill="#e6e1d9" font-family="ui-monospace, SFMono-Regular, Menlo, monospace" font-size="12">noop</text>
<rect x="398" y="204" width="132" height="32" rx="8" fill="#21262d" stroke="#30363d"/>
<text x="410" y="225" fill="#e6e1d9" font-family="ui-monospace, SFMono-Regular, Menlo, monospace" font-size="12">set foo=bar</text>
<rect x="548" y="204" width="132" height="32" rx="8" fill="#21262d" stroke="#30363d"/>
<text x="560" y="225" fill="#e6e1d9" font-family="ui-monospace, SFMono-Regular, Menlo, monospace" font-size="12">set baz=qux</text>
<text x="820" y="226" fill="#3fb950" font-family="ui-monospace, SFMono-Regular, Menlo, monospace" font-size="14">commit ✓</text>
<text x="38" y="284" fill="#e6e1d9" font-family="ui-monospace, SFMono-Regular, Menlo, monospace" font-size="14">node-3</text>
<rect x="120" y="266" width="92" height="24" rx="12" fill="#8b949e"/>
<text x="136" y="282" fill="#0f1115" font-family="ui-monospace, SFMono-Regular, Menlo, monospace" font-size="12" font-weight="700">FOLLOWER</text>
<rect x="248" y="262" width="132" height="32" rx="8" fill="#21262d" stroke="#30363d"/>
<text x="260" y="283" fill="#e6e1d9" font-family="ui-monospace, SFMono-Regular, Menlo, monospace" font-size="12">noop</text>
<rect x="398" y="262" width="132" height="32" rx="8" fill="#21262d" stroke="#30363d"/>
<text x="410" y="283" fill="#e6e1d9" font-family="ui-monospace, SFMono-Regular, Menlo, monospace" font-size="12">set foo=bar</text>
<rect x="548" y="262" width="132" height="32" rx="8" fill="#21262d" stroke="#30363d"/>
<text x="560" y="283" fill="#e6e1d9" font-family="ui-monospace, SFMono-Regular, Menlo, monospace" font-size="12">set baz=qux</text>
<text x="820" y="284" fill="#3fb950" font-family="ui-monospace, SFMono-Regular, Menlo, monospace" font-size="14">commit ✓</text>
<text x="38" y="342" fill="#e6e1d9" font-family="ui-monospace, SFMono-Regular, Menlo, monospace" font-size="14">node-4</text>
<rect x="120" y="324" width="92" height="24" rx="12" fill="#3fb950"/>
<text x="136" y="340" fill="#0f1115" font-family="ui-monospace, SFMono-Regular, Menlo, monospace" font-size="12" font-weight="700">LEADER</text>
<rect x="248" y="320" width="132" height="32" rx="8" fill="#21262d" stroke="#30363d"/>
<text x="260" y="341" fill="#e6e1d9" font-family="ui-monospace, SFMono-Regular, Menlo, monospace" font-size="12">noop</text>
<rect x="398" y="320" width="132" height="32" rx="8" fill="#21262d" stroke="#30363d"/>
<text x="410" y="341" fill="#e6e1d9" font-family="ui-monospace, SFMono-Regular, Menlo, monospace" font-size="12">set foo=bar</text>
<rect x="548" y="320" width="132" height="32" rx="8" fill="#21262d" stroke="#30363d"/>
<text x="560" y="341" fill="#e6e1d9" font-family="ui-monospace, SFMono-Regular, Menlo, monospace" font-size="12">set baz=qux</text>
<text x="820" y="342" fill="#3fb950" font-family="ui-monospace, SFMono-Regular, Menlo, monospace" font-size="14">commit ✓</text>
</svg>
