<svg xmlns="http://www.w3.org/2000/svg" width="960" height="430" viewBox="0 0 960 430">
<rect width="100%" height="100%" rx="18" fill="#0f1115"/>
<rect x="18" y="18" width="924" height="394" rx="14" fill="#11161d" stroke="#30363d"/>
<text x="36" y="48" fill="#e6e1d9" font-family="ui-monospace, SFMono-Regular, Menlo, monospace" font-size="20" font-weight="700">LSM storage path</text>
<defs><marker id="arrow" markerWidth="8" markerHeight="8" refX="7" refY="4" orient="auto"><path d="M0,0 L8,4 L0,8 Z" fill="#58a6ff"/></marker></defs>
<rect x="48" y="98" width="150" height="76" rx="14" fill="#21262d" stroke="#30363d"/>
<text x="66" y="130" fill="#e6e1d9" font-family="ui-monospace, SFMono-Regular, Menlo, monospace" font-size="15" font-weight="700">Raft commit</text>
<text x="66" y="154" fill="#8b949e" font-family="ui-monospace, SFMono-Regular, Menlo, monospace" font-size="12">ordered command</text>
<rect x="250" y="98" width="150" height="76" rx="14" fill="#1f2a36" stroke="#30363d"/>
<text x="268" y="130" fill="#e6e1d9" font-family="ui-monospace, SFMono-Regular, Menlo, monospace" font-size="15" font-weight="700">WAL fsync</text>
<text x="268" y="154" fill="#8b949e" font-family="ui-monospace, SFMono-Regular, Menlo, monospace" font-size="12">durable first</text>
<rect x="452" y="98" width="150" height="76" rx="14" fill="#173322" stroke="#30363d"/>
<text x="470" y="130" fill="#e6e1d9" font-family="ui-monospace, SFMono-Regular, Menlo, monospace" font-size="15" font-weight="700">memtable</text>
<text x="470" y="154" fill="#8b949e" font-family="ui-monospace, SFMono-Regular, Menlo, monospace" font-size="12">BTreeMap</text>
<rect x="654" y="98" width="150" height="76" rx="14" fill="#2d2438" stroke="#30363d"/>
<text x="672" y="130" fill="#e6e1d9" font-family="ui-monospace, SFMono-Regular, Menlo, monospace" font-size="15" font-weight="700">SSTable</text>
<text x="672" y="154" fill="#8b949e" font-family="ui-monospace, SFMono-Regular, Menlo, monospace" font-size="12">sorted file</text>
<rect x="48" y="264" width="150" height="76" rx="14" fill="#21262d" stroke="#30363d"/>
<text x="66" y="296" fill="#e6e1d9" font-family="ui-monospace, SFMono-Regular, Menlo, monospace" font-size="15" font-weight="700">get key</text>
<text x="66" y="320" fill="#8b949e" font-family="ui-monospace, SFMono-Regular, Menlo, monospace" font-size="12">point read</text>
<rect x="452" y="264" width="150" height="76" rx="14" fill="#2d2a1f" stroke="#30363d"/>
<text x="470" y="296" fill="#e6e1d9" font-family="ui-monospace, SFMono-Regular, Menlo, monospace" font-size="15" font-weight="700">bloom filter</text>
<text x="470" y="320" fill="#8b949e" font-family="ui-monospace, SFMono-Regular, Menlo, monospace" font-size="12">skip misses</text>
<rect x="654" y="264" width="150" height="76" rx="14" fill="#2d2a1f" stroke="#30363d"/>
<text x="672" y="296" fill="#e6e1d9" font-family="ui-monospace, SFMono-Regular, Menlo, monospace" font-size="15" font-weight="700">sparse index</text>
<text x="672" y="320" fill="#8b949e" font-family="ui-monospace, SFMono-Regular, Menlo, monospace" font-size="12">seek nearby</text>
<line x1="198" y1="136" x2="250" y2="136" stroke="#58a6ff" stroke-width="2" marker-end="url(#arrow)"/>
<text x="206" y="128" fill="#8b949e" font-family="ui-monospace, SFMono-Regular, Menlo, monospace" font-size="11">append</text>
<line x1="400" y1="136" x2="452" y2="136" stroke="#58a6ff" stroke-width="2" marker-end="url(#arrow)"/>
<text x="408" y="128" fill="#8b949e" font-family="ui-monospace, SFMono-Regular, Menlo, monospace" font-size="11">apply</text>
<line x1="602" y1="136" x2="654" y2="136" stroke="#58a6ff" stroke-width="2" marker-end="url(#arrow)"/>
<text x="610" y="128" fill="#8b949e" font-family="ui-monospace, SFMono-Regular, Menlo, monospace" font-size="11">flush</text>
<line x1="198" y1="302" x2="452" y2="302" stroke="#58a6ff" stroke-width="2" marker-end="url(#arrow)"/>
<text x="307" y="294" fill="#8b949e" font-family="ui-monospace, SFMono-Regular, Menlo, monospace" font-size="11">miss</text>
<line x1="602" y1="302" x2="654" y2="302" stroke="#58a6ff" stroke-width="2" marker-end="url(#arrow)"/>
<text x="610" y="294" fill="#8b949e" font-family="ui-monospace, SFMono-Regular, Menlo, monospace" font-size="11">maybe</text>
<line x1="727" y1="264" x2="727" y2="174" stroke="#58a6ff" stroke-width="2" marker-end="url(#arrow)"/>
<text x="709" y="211" fill="#8b949e" font-family="ui-monospace, SFMono-Regular, Menlo, monospace" font-size="11">read file</text>
<line x1="527" y1="264" x2="527" y2="174" stroke="#58a6ff" stroke-width="2" marker-end="url(#arrow)"/>
<path d="M123 264 C123 220 500 220 527 174" fill="none" stroke="#3fb950" stroke-width="2" stroke-dasharray="6 6"/>
<path d="M527 264 C527 226 692 220 727 174" fill="none" stroke="#d29922" stroke-width="2" stroke-dasharray="6 6"/>
<text x="52" y="388" fill="#8b949e" font-family="ui-monospace, SFMono-Regular, Menlo, monospace" font-size="12">writes flow left to right · reads start at memtable, then bloom/index/SSTable</text>
</svg>
