<svg xmlns="http://www.w3.org/2000/svg" width="960" height="390" viewBox="0 0 960 390">
<rect width="100%" height="100%" rx="18" fill="#0f1115"/>
<rect x="18" y="18" width="924" height="354" rx="14" fill="#11161d" stroke="#30363d"/>
<text x="36" y="48" fill="#e6e1d9" font-family="ui-monospace, SFMono-Regular, Menlo, monospace" font-size="20" font-weight="700">live observability loop</text>
<defs><marker id="obs-arrow" markerWidth="8" markerHeight="8" refX="7" refY="4" orient="auto"><path d="M0,0 L8,4 L0,8 Z" fill="#58a6ff"/></marker></defs>
<rect x="48" y="100" width="150" height="52" rx="13" fill="#21262d" stroke="#30363d"/>
<text x="66" y="122" fill="#e6e1d9" font-family="ui-monospace, SFMono-Regular, Menlo, monospace" font-size="14" font-weight="700">raft-node 0</text>
<text x="66" y="140" fill="#8b949e" font-family="ui-monospace, SFMono-Regular, Menlo, monospace" font-size="11">/metrics + logs</text>
<rect x="48" y="170" width="150" height="52" rx="13" fill="#21262d" stroke="#30363d"/>
<text x="66" y="192" fill="#e6e1d9" font-family="ui-monospace, SFMono-Regular, Menlo, monospace" font-size="14" font-weight="700">raft-node 1</text>
<text x="66" y="210" fill="#8b949e" font-family="ui-monospace, SFMono-Regular, Menlo, monospace" font-size="11">/metrics + logs</text>
<rect x="48" y="240" width="150" height="52" rx="13" fill="#21262d" stroke="#30363d"/>
<text x="66" y="262" fill="#e6e1d9" font-family="ui-monospace, SFMono-Regular, Menlo, monospace" font-size="14" font-weight="700">raft-node 2</text>
<text x="66" y="280" fill="#8b949e" font-family="ui-monospace, SFMono-Regular, Menlo, monospace" font-size="11">/metrics + logs</text>
<rect x="336" y="154" width="170" height="82" rx="16" fill="#1f2a36" stroke="#30363d"/>
<text x="356" y="188" fill="#e6e1d9" font-family="ui-monospace, SFMono-Regular, Menlo, monospace" font-size="16" font-weight="700">Prometheus</text>
<text x="356" y="212" fill="#8b949e" font-family="ui-monospace, SFMono-Regular, Menlo, monospace" font-size="12">scrapes every 2s</text>
<rect x="572" y="154" width="170" height="82" rx="16" fill="#2d2438" stroke="#30363d"/>
<text x="592" y="188" fill="#e6e1d9" font-family="ui-monospace, SFMono-Regular, Menlo, monospace" font-size="16" font-weight="700">Grafana</text>
<text x="592" y="212" fill="#8b949e" font-family="ui-monospace, SFMono-Regular, Menlo, monospace" font-size="12">preloaded dashboard</text>
<rect x="780" y="96" width="130" height="198" rx="16" fill="#11161d" stroke="#30363d"/>
<text x="802" y="126" fill="#e6e1d9" font-family="ui-monospace, SFMono-Regular, Menlo, monospace" font-size="14" font-weight="700">panels</text>
<text x="802" y="154" fill="#8b949e" font-family="ui-monospace, SFMono-Regular, Menlo, monospace" font-size="12">role map</text>
<text x="802" y="180" fill="#8b949e" font-family="ui-monospace, SFMono-Regular, Menlo, monospace" font-size="12">term</text>
<text x="802" y="206" fill="#8b949e" font-family="ui-monospace, SFMono-Regular, Menlo, monospace" font-size="12">commit index</text>
<text x="802" y="232" fill="#8b949e" font-family="ui-monospace, SFMono-Regular, Menlo, monospace" font-size="12">replication lag</text>
<text x="802" y="258" fill="#8b949e" font-family="ui-monospace, SFMono-Regular, Menlo, monospace" font-size="12">compactions</text>
<line x1="198" y1="126" x2="336" y2="178" stroke="#58a6ff" stroke-width="2" marker-end="url(#obs-arrow)"/>
<text x="245" y="144" fill="#8b949e" font-family="ui-monospace, SFMono-Regular, Menlo, monospace" font-size="11">/metrics</text>
<line x1="198" y1="196" x2="336" y2="196" stroke="#58a6ff" stroke-width="2" marker-end="url(#obs-arrow)"/>
<text x="245" y="188" fill="#8b949e" font-family="ui-monospace, SFMono-Regular, Menlo, monospace" font-size="11">/metrics</text>
<line x1="198" y1="266" x2="336" y2="214" stroke="#58a6ff" stroke-width="2" marker-end="url(#obs-arrow)"/>
<text x="245" y="232" fill="#8b949e" font-family="ui-monospace, SFMono-Regular, Menlo, monospace" font-size="11">/metrics</text>
<line x1="506" y1="196" x2="572" y2="196" stroke="#58a6ff" stroke-width="2" marker-end="url(#obs-arrow)"/>
<text x="517" y="188" fill="#8b949e" font-family="ui-monospace, SFMono-Regular, Menlo, monospace" font-size="11">PromQL</text>
<line x1="742" y1="196" x2="780" y2="196" stroke="#58a6ff" stroke-width="2" marker-end="url(#obs-arrow)"/>
<path d="M198 306 C320 342 555 342 702 248" fill="none" stroke="#8b949e" stroke-width="2" stroke-dasharray="6 6"/>
<text x="52" y="342" fill="#8b949e" font-family="ui-monospace, SFMono-Regular, Menlo, monospace" font-size="12">logs stay local by default · set RAFT_KV_LOG=json for structured JSON</text>
</svg>
